<svg id="logo_blue" data-name="logo blue" xmlns="http://www.w3.org/2000/svg" width="239.18" height="34.07" viewBox="0 0 239.18 34.07">
  <g id="Group_608" data-name="Group 608" transform="translate(0 0)">
    <path id="Path_179" data-name="Path 179" d="M256.794,215.8v-32.97h5.8v27.875h14.586V215.8Z" transform="translate(-256.794 -182.532)" fill="#0b192f"/>
    <path id="Path_180" data-name="Path 180" d="M297.156,215.8v-3.2a11.534,11.534,0,0,1-8.492,3.8c-5.1,0-7.694-2.7-7.694-7.593V191.823h5.2v15.086c0,3.7,1.9,4.9,4.8,4.9a7.928,7.928,0,0,0,6.093-3.1V191.823h5.2V215.7h-5.1v.1Z" transform="translate(-256.794 -182.532)" fill="#0b192f"/>
    <path id="Path_181" data-name="Path 181" d="M307.048,203.812c0-7.195,5.1-12.489,12.389-12.489,4.7,0,7.493,2,9.192,4.3l-3.4,3.2a6.31,6.31,0,0,0-5.495-2.8c-4.4,0-7.193,3.3-7.193,7.894s2.9,7.993,7.193,7.993a6.547,6.547,0,0,0,5.495-2.8l3.4,3.2c-1.7,2.3-4.5,4.3-9.192,4.3-7.294-.2-12.389-5.5-12.389-12.79" transform="translate(-256.794 -182.532)" fill="#0b192f"/>
    <path id="Path_182" data-name="Path 182" d="M331.526,185.729a3.217,3.217,0,0,1,3.2-3.2,3.2,3.2,0,1,1-3.2,3.2m.6,30.072V191.823h5.2V215.7h-5.2Z" transform="translate(-256.794 -182.532)" fill="#0b192f"/>
    <path id="Path_183" data-name="Path 183" d="M360.3,215.8v-3.3a9.606,9.606,0,0,1-7.694,3.9c-6.093,0-10.589-4.7-10.589-12.491,0-7.692,4.5-12.587,10.589-12.587a9.752,9.752,0,0,1,7.694,3.9V182.73h5.2V215.7h-5.2Zm0-7.193v-9.492a7.786,7.786,0,0,0-6.195-3.2c-4.1,0-6.693,3.3-6.693,7.991,0,4.6,2.6,7.894,6.693,7.894a8.249,8.249,0,0,0,6.195-3.2" transform="translate(-256.794 -182.532)" fill="#0b192f"/>
    <path id="Path_184" data-name="Path 184" d="M392.569,215.8l-5.594-17.584-5.5,17.483h-5.4l-7.393-23.877h5.4l4.994,17.384,5.7-17.384h4.6l5.7,17.384,5.1-17.384h5.394L398.166,215.7h-5.6v.1Z" transform="translate(-256.794 -182.532)" fill="#1682c9"/>
    <path id="Path_185" data-name="Path 185" d="M406.655,203.812c0-6.794,4.7-12.489,12.291-12.489,7.692,0,12.289,5.7,12.289,12.489,0,6.893-4.695,12.587-12.289,12.587s-12.291-5.694-12.291-12.587m19.184,0c0-4.2-2.5-7.894-6.893-7.894s-6.9,3.7-6.9,7.894c0,4.3,2.5,7.993,6.9,7.993,4.4-.1,6.893-3.8,6.893-7.993" transform="translate(-256.794 -182.532)" fill="#1682c9"/>
    <path id="Path_186" data-name="Path 186" d="M435.83,215.8V191.823h5.194v3.5a10.291,10.291,0,0,1,7.794-4.1v5.1a7.588,7.588,0,0,0-1.6-.1,8.033,8.033,0,0,0-6.093,3.2V215.7h-5.3Z" transform="translate(-256.794 -182.532)" fill="#1682c9"/>
    <path id="Path_187" data-name="Path 187" d="M468.1,215.8l-7.293-9.892-3.3,3.4V215.7h-5.195V182.731h5.195v20.581L468,191.823h6.394l-9.989,10.79L474.6,215.7H468.1Z" transform="translate(-256.794 -182.532)" fill="#1682c9"/>
    <path id="Path_188" data-name="Path 188" d="M475.894,212.6l2.4-3.8a12.539,12.539,0,0,0,8.091,3.4c3.1,0,4.7-1.3,4.7-3.2,0-4.694-14.488-1.3-14.488-10.489,0-3.9,3.4-7.293,9.393-7.293a13.3,13.3,0,0,1,9.292,3.4l-2.2,3.7a9.716,9.716,0,0,0-7.094-2.9c-2.7,0-4.5,1.2-4.5,2.9,0,4.3,14.487,1.1,14.487,10.591,0,4.195-3.5,7.391-9.99,7.391a13.718,13.718,0,0,1-10.09-3.694" transform="translate(-256.794 -182.532)" fill="#1682c9"/>
  </g>
</svg>
